<?xml version="1.0" encoding="UTF-8"?>
<svg width="1041px" height="664px" viewBox="0 0 1041 664" version="1.1" xmlns="http://www.w3.org/2000/svg" xmlns:xlink="http://www.w3.org/1999/xlink">
    <!-- Generator: Sketch 51.2 (57519) - http://www.bohemiancoding.com/sketch -->
    <title>Group</title>
    <desc>Created with Sketch.</desc>
    <defs>
        <path d="M0.073536673,282.750783 C-1.87611482,300.121603 35.5559657,314.694067 39.4168461,326.759752 C54.7622597,374.715892 8.47462239,435.958777 64.9164611,411.49256 C64.9164611,411.49256 116.260966,384.767303 144.772009,402.797762 C163.779371,414.818068 174.608013,444.070502 177.257935,490.555065 C196.51121,572.569028 226.420352,582.065681 266.985361,519.045025 C327.832875,424.51404 418.905401,497.844445 445.556199,532.041888 C472.206997,566.239332 512.175243,630.739589 580.09487,557.33009 C625.37462,508.390423 661.200509,488.61566 687.572534,498.005798 C733.793538,516.155427 756.904039,529.597331 756.904039,538.33151 C756.904039,551.432779 841.648551,577.110126 834.853091,551.129054 C830.322784,533.80834 821.642699,511.741935 808.812835,484.92984 C780.598584,457.546153 774.485743,443.85431 790.474314,443.85431 C814.45717,443.85431 917.069577,448.492431 893.15032,418.854014 C869.231062,389.215597 818.559249,399.478943 826.70617,346.70054 C834.853091,293.922138 970.749582,280.102688 893.15032,233.876502 C841.417478,203.059045 809.382039,188.156523 797.044001,189.168937 C782.123879,189.168937 774.663818,189.168937 774.663818,189.168937 C774.663818,189.168937 812.590564,72.4028116 741.812202,97.8365472 C671.03384,123.270283 719.549676,35.1048506 634.840142,66.4706989 C550.130609,97.8365472 562.153836,14.9578139 483.724619,56.3971805 C405.295401,97.8365472 412.361154,-9.41605091 335.900298,44.2102481 C259.439443,97.8365472 240.767031,-78.0450585 190.343251,44.2102481 C156.727398,125.713786 125.956501,150.832197 98.0305611,119.565481 C31.6383501,99.0029324 5.0288912,106.45683 18.2021845,141.927173 C28.4551087,169.534145 46.008185,199.505771 39.4168461,221.013182 C33.3050325,240.955912 3.50348234,252.19098 0.073536673,282.750783 Z" id="path-1"></path>
        <filter x="-3.8%" y="-7.2%" width="114.4%" height="113.0%" filterUnits="objectBoundingBox" id="filter-2">
            <feGaussianBlur stdDeviation="0" in="SourceGraphic"></feGaussianBlur>
        </filter>
        <filter x="-7.7%" y="-13.3%" width="122.2%" height="125.2%" filterUnits="objectBoundingBox" id="filter-3">
            <feMorphology radius="30" operator="dilate" in="SourceAlpha" result="shadowSpreadOuter1"></feMorphology>
            <feOffset dx="61" dy="-6" in="shadowSpreadOuter1" result="shadowOffsetOuter1"></feOffset>
            <feGaussianBlur stdDeviation="1" in="shadowOffsetOuter1" result="shadowBlurOuter1"></feGaussianBlur>
            <feComposite in="shadowBlurOuter1" in2="SourceAlpha" operator="out" result="shadowBlurOuter1"></feComposite>
            <feColorMatrix values="0 0 0 0 0.138542295   0 0 0 0 0.715095912   0 0 0 0 0.961710989  0 0 0 1 0" type="matrix" in="shadowBlurOuter1"></feColorMatrix>
        </filter>
        <linearGradient x1="50%" y1="0%" x2="50%" y2="100%" id="linearGradient-4">
            <stop stop-color="#B4EC51" offset="0%"></stop>
            <stop stop-color="#429321" offset="100%"></stop>
        </linearGradient>
    </defs>
    <g id="Page-1" stroke="none" stroke-width="1" fill="none" fill-rule="evenodd">
        <g id="Group" transform="translate(26.000000, 42.319247)">
            <g id="Path-5" filter="url(#filter-2)">
                <use fill="black" fill-opacity="1" filter="url(#filter-3)" xlink:href="#path-1"></use>
                <use stroke="#50E3C2" stroke-width="51" fill="#50E3C2" fill-rule="evenodd" xlink:href="#path-1"></use>
            </g>
            <path d="M749.963528,190 C774.475913,190 804,167.907842 804,154.274967 C804,140.642092 782.745301,138 758.232916,138 C733.720531,138 712,161.290569 712,174.923444 C712,188.556318 725.451143,190 749.963528,190 Z" id="Oval" stroke="#50E3C2" fill="#FFFFFF"></path>
            <ellipse id="Oval-2" fill="url(#linearGradient-4)" cx="767" cy="164.5" rx="18" ry="16.5"></ellipse>
            <ellipse id="Oval-3" stroke="#000000" fill="#000000" cx="772" cy="167" rx="5" ry="9"></ellipse>
            <path d="M853.640767,365.800185 C800.520775,371.920627 758.307187,389.947607 727,419.881124 C727,427.691886 733.538473,435.998367 746.61542,444.800567 C756.293273,451.314809 765.479805,453.8126 769.612689,455.189764 C791.863502,462.604201 792.517216,463.242 825.021088,463.242 C863.562256,463.242 893.449253,469.720011 913.166198,444.800567 C926.310829,428.187605 930.719602,411.625724 926.392516,395.114923 C917.451273,380.201568 906.58338,370.429988 893.788838,365.800185 C882.812673,361.828375 883.909198,362.31268 853.640767,365.800185 Z" id="Path-7" stroke="#979797" fill="#8B572A"></path>
            <path d="M727.387962,420 C725.500607,499.94122 730.499448,547.130238 742.384484,561.567055 C750.368261,571.264991 758.775319,578.282351 760.428699,582.239523 C799.481767,595.583534 861.020591,597.23426 867.802067,561.567055 C869.65461,551.823598 857.907926,530.061813 857.333751,525.059132 C854.924004,523.275324 846.268414,502.198492 831.366981,461.828637 L727.387962,420 Z" id="Path-9" fill="#8B572A"></path>
            <path d="M850.449531,314 C862.537203,314 892,299.120869 892,289.345474 C892,284.195491 886.256368,275.525565 881.915104,272.29111 C878.016034,269.386112 865.747948,272.29111 860.028438,272.29111 C847.940765,272.29111 825,288.080344 825,297.855739 C825,307.631134 838.361859,314 850.449531,314 Z" id="Oval-4" stroke="#979797" fill="#8B572A"></path>
        </g>
    </g>
</svg>