<?xml version="1.0" encoding="UTF-8"?>
<svg width="1210px" height="805px" viewBox="0 0 1210 805" version="1.1" xmlns="http://www.w3.org/2000/svg" xmlns:xlink="http://www.w3.org/1999/xlink">
    <!-- Generator: Sketch 51.2 (57519) - http://www.bohemiancoding.com/sketch -->
    <title>Group</title>
    <desc>Created with Sketch.</desc>
    <defs></defs>
    <g id="Page-1" stroke="none" stroke-width="1" fill="none" fill-rule="evenodd">
        <g id="Group" transform="translate(0.000000, 1.000000)" stroke="#50E3C2" stroke-width="2">
            <path d="M44.6953125,139.828125 C66.675431,139.828125 66.5164122,111.064346 87.734375,106.078125 C103.648061,102.338409 112.973783,110.703171 125.59375,106.488281 C142.710776,100.771438 145.421411,68.6575118 164.292969,65.734375 C170.797692,64.7268167 177.518154,63.3349255 184,64.4804688 C191.237094,65.7594878 197.343516,76.6893676 206.5,71.7265625 C225.806681,61.2623609 222.00929,50.8636764 239.902344,53.1015625" id="Path-11"></path>
            <path d="M76.7460938,691.785156 C76.7460938,708.018465 119.833547,694.324736 128.601562,688.824219 C142.177234,680.307672 190.907673,633.544738 214.523438,654.542969 C222.754489,661.861704 229.810937,670.447918 238.152344,677.640625 C239.882609,679.132615 242.180733,680.075955 244.449219,680.347656 C249.845546,680.993984 255.604134,682.084879 260.753906,680.347656 C270.530795,677.049524 278.392717,669.419938 288,665.65625 C291.752718,664.186109 296.046875,665.182292 300.070312,664.945312" id="Path-12"></path>
            <path d="M1122.89453,634.304688 C1122.98307,644.740885 1123.73309,655.192446 1123.16016,665.613281 C1121.44744,696.765227 1077.80512,713.206442 1053.93359,719.441406 C1036.87938,723.895769 1019.38421,718.984924 1002.64844,725.257812 C983.331941,732.498005 996.766303,753.495473 968.980469,754.804688 C958.302211,755.307826 947.561495,755.714249 936.910156,754.804688 C929.459735,754.168466 922.351821,751.300753 914.957031,750.191406 C911.092604,749.611675 906.748322,748.028536 903.242188,749.753906 C896.07739,753.279706 891.292503,760.396015 884.792969,765.035156 C816.487412,813.789287 904.820235,744.621132 832.507812,802.597656" id="Path-13"></path>
            <path d="M1082.60156,151.601562 C1070.57784,137.071903 1057.87965,118.29922 1037.10938,116.914062 C999.797679,114.425768 1026.53426,116.055458 1002.32031,120.25 C1000.41077,120.580787 998.306794,120.661807 996.515625,119.921875 C979.603902,112.935635 970.633175,93.5172401 953.796875,84.8359375 C935.54164,75.4229893 915.572972,93.1466706 897.117188,88.9804688 C856.530564,79.8184598 859.750035,74.0042748 816.113281,78.765625" id="Path-14"></path>
            <path d="M117.929688,278.8125 C104.877286,278.8125 95.7144735,275.791314 85.0625,281.683594 C72.9945221,288.359155 73.9341944,304.507643 70.5429688,304.460938 C36.36174,303.990178 70.2794354,300.361187 26.9023438,290.445312 C18.4282302,288.508155 9.51692708,290.445312 0.82421875,290.445312" id="Path-15"></path>
            <path d="M92.828125,468.234375 C76.6015625,468.234375 60.0985578,465.251928 44.1484375,468.234375 C39.3556079,469.130567 38.2916337,476.194984 34.4179687,479.15625 C23.7119885,487.340554 10.5506628,476.732429 0.42578125,473.59375" id="Path-16"></path>
            <path d="M479.496094,733.359375 C456.908228,745.009287 410.64247,776.854852 378.476563,769.230469 C353.667915,763.349999 335.153589,750.738345 308.277344,755.917969 C272.122124,762.885848 244.645507,791.373305 206.226562,793.515625 C175.181175,795.24678 156.812803,771.02372 127.09375,768.609375 C93.8144428,765.905798 68.4830642,796.39585 37.8203125,784.660156" id="Path-17"></path>
            <path d="M701.984375,763.183594 C696.94118,763.183594 663.66765,764.824028 651.625,761.285156 C618.350245,751.506985 641.855806,752.06346 610.058594,751.433594 C601.001956,751.254192 592.345188,780.533339 575.324219,785.117188 C545.090594,793.259283 525.866565,792.383653 493.78125,794.175781" id="Path-18"></path>
            <path d="M551.484375,35.609375 C505.875157,9.15206032 477.626434,-7.39088483 423.25,3.56640625 C393.278026,9.60600145 363.90962,18.5638835 333.789062,23.8125 C303.181586,29.1459639 276.496324,11.0716103 246.117188,13.6445312 C218.13856,16.0141442 195.699681,37.0237125 168.066406,39.4257812 C131.454987,42.6082903 95.1287963,36.6757639 58.4960938,37.4648438" id="Path-19"></path>
            <path d="M1209.61328,285.511719 C1169.70437,276.208965 1190.4299,260.606391 1177.76172,231.152344 C1172.44128,218.782115 1141.73656,203.998077 1138.91406,201.722656 C1131.10359,195.426056 1135.50788,181.00127 1132.16406,172.574219" id="Path-20"></path>
            <path d="M813.769531,38.3242188 C788.450521,37.7057292 763.138876,36.3712706 737.8125,36.46875 C730.504315,36.4968787 725.772722,47.0919149 718.417969,49.0039062 C713.753506,50.2165116 708.688174,51.2033689 704,50.0859375 C692.144629,47.2601968 681.487241,40.5335263 669.710938,37.3945312 C647.554308,31.4886416 642.706534,49.0825288 612.378906,35.3554688" id="Path-21"></path>
            <path d="M1166.45703,684.515625 C1166.45703,711.769768 1119.28255,717.472056 1106.80859,727.195312 C1102.34329,730.675946 1104.89204,738.37961 1103.3125,743.816406 C1102.15356,747.805484 1100.64089,751.73119 1098.625,755.363281 C1084.54243,780.736328 1049.75092,780.988909 1025.17969,781.519531" id="Path-22"></path>
        </g>
    </g>
</svg>